<svg width="68" height="82" viewBox="0 0 68 82" fill="none" xmlns="http://www.w3.org/2000/svg">
    <path d="M33.6787 0C51.3599 7.33393e-05 67.3572 13.4184 67.3574 34.1709C67.3574 47.4227 62.9004 63.009 36.457 80.9697C34.8574 82.3446 32.4581 82.3444 30.8584 80.9697C4.4571 63.009 0 47.4227 0 34.1709C0.000203881 13.4183 15.9974 0 33.6787 0ZM27.0879 21C25.5719 21.0002 24.3429 22.2291 24.3428 23.7451V49.0469C24.343 50.5628 25.572 51.7918 27.0879 51.792C28.6039 51.792 29.8328 50.5629 29.833 49.0469V23.7451C29.8329 22.229 28.604 21 27.0879 21ZM40.415 21C38.899 21 37.67 22.229 37.6699 23.7451V49.0469C37.6701 50.5629 38.899 51.792 40.415 51.792C41.9311 51.792 43.16 50.5629 43.1602 49.0469V23.7451C43.1601 22.229 41.9312 21 40.415 21ZM33.7607 25.0352C32.2446 25.0352 31.0156 26.2651 31.0156 27.7812V45.0205C31.0159 46.5365 32.2447 47.7656 33.7607 47.7656C35.2768 47.7656 36.5056 46.5365 36.5059 45.0205V27.7812C36.5059 26.2651 35.2769 25.0352 33.7607 25.0352ZM20.4199 27.04C18.9039 27.0402 17.6748 28.2691 17.6748 29.7852V43.0107C17.6748 44.5268 18.9039 45.7557 20.4199 45.7559C21.9361 45.7559 23.165 44.5269 23.165 43.0107V29.7852C23.165 28.269 21.9361 27.04 20.4199 27.04ZM47.083 27.04C45.5669 27.0401 44.3379 28.269 44.3379 29.7852V43.0107C44.3379 44.5269 45.5669 45.7558 47.083 45.7559C48.5992 45.7559 49.8281 44.5269 49.8281 43.0107V29.7852C49.8281 28.269 48.5992 27.04 47.083 27.04ZM13.7451 33.0723C12.2293 33.0723 11 34.3015 11 35.8174V36.9678C11.0001 38.4835 12.2294 39.7119 13.7451 39.7119C15.2607 39.7117 16.4891 38.4833 16.4893 36.9678V35.8174C16.4893 34.3017 15.2608 33.0725 13.7451 33.0723ZM53.7578 33.0723C52.242 33.0723 51.0127 34.3015 51.0127 35.8174V36.9678C51.0128 38.4835 52.2421 39.7119 53.7578 39.7119C55.2734 39.7117 56.5018 38.4834 56.502 36.9678V35.8174C56.502 34.3017 55.2735 33.0725 53.7578 33.0723Z" fill="#FFCC00"/>
</svg>
